# Blender v2.76 (sub 0) OBJ File: ''
# www.blender.org
mtllib adam.mtl
o Cube
v 0.500162 0.203846 -1.000000
v 0.500162 0.203846 1.000000
v -0.500162 0.203846 1.000000
v -0.500162 0.203846 -1.000000
v 0.500162 2.966437 -0.999999
v 0.500162 2.966437 1.000001
v -0.500162 2.966437 1.000000
v -0.500162 2.966437 -1.000000
v 0.500162 0.203846 -0.333333
v 0.500162 0.203846 0.333333
v -0.500162 0.203846 0.333333
v -0.500162 0.203846 -0.333334
v 0.500162 2.966437 -0.333333
v 0.500162 2.966437 0.333334
v -0.500162 2.966437 0.333333
v -0.500162 2.966437 -0.333333
v 0.500162 3.818009 -0.333333
v 0.500162 3.818009 0.333334
v -0.500162 3.818009 0.333333
v -0.500162 3.818009 -0.333333
v 0.500162 -1.773047 0.333333
v 0.500162 -1.773047 1.000000
v 0.500162 -1.773047 -1.000000
v -0.500162 -1.773047 -1.000000
v -0.500162 -1.773047 1.000000
v -0.500162 -1.773047 -0.333334
v 0.500162 -1.773047 -0.333333
v -0.500162 -1.773047 0.333333
v 0.500162 2.561922 -1.000000
v 0.500162 2.561922 1.000000
v -0.500162 2.561922 1.000000
v -0.500162 2.561922 -1.000000
v -0.500162 2.561922 0.333333
v -0.500162 2.561922 -0.333333
v 0.500162 2.561922 -0.333333
v 0.500162 2.561922 0.333334
v -0.500162 2.240943 0.333333
v -0.500162 2.240943 -0.333333
v 0.500162 2.240943 -0.333333
v 0.500162 2.240943 0.333334
v 0.500162 2.240943 -1.000000
v 0.500162 2.240943 1.000000
v -0.500162 2.240943 1.000000
v -0.500162 2.240943 -1.000000
v 0.500163 2.240943 -1.703328
v 0.500163 2.561922 -1.703328
v -0.500162 2.240943 -1.703328
v -0.500162 2.561922 -1.703328
v -0.500162 2.240943 -1.351664
v 0.500162 2.240943 -1.351664
v -0.500162 2.561922 -1.351664
v 0.500162 2.561922 -1.351664
v 0.500163 0.248195 -1.703328
v -0.500162 0.248195 -1.703328
v -0.500162 0.248195 -1.351664
v 0.500162 0.248195 -1.351664
vt 0.673881 0.248519
vt 0.923160 0.248518
vt 0.923160 0.426357
vt 0.673881 0.426357
vt 0.420033 0.751481
vt 0.420033 1.000000
vt 0.336941 1.000000
vt 0.336941 0.751481
vt 0.420033 0.389967
vt 0.420033 0.426357
vt 0.336941 0.426357
vt 0.336941 0.389967
vt 0.673881 0.036390
vt 0.673881 0.000000
vt 0.923159 0.000000
vt 0.923159 0.036390
vt 0.166186 0.112996
vt 0.166186 0.076606
vt 0.249278 0.076606
vt 0.249278 0.112996
vt 0.249278 0.502963
vt 0.249278 0.686217
vt 0.000000 0.686217
vt 0.000000 0.502963
vt 0.000000 0.112996
vt 0.000000 0.076606
vt 0.083093 0.076606
vt 0.083093 0.112996
vt 0.586219 0.389967
vt 0.586219 0.426357
vt 0.503126 0.426357
vt 0.503126 0.389967
vt 0.503126 0.751481
vt 0.503126 1.000000
vt 0.083093 0.000000
vt 0.166186 0.000000
vt 0.637867 0.751481
vt 0.637867 0.502963
vt 0.816249 0.502963
vt 0.816249 0.751481
vt 0.752405 0.751481
vt 0.835497 0.751481
vt 0.835497 1.000000
vt 0.752405 1.000000
vt 0.669312 0.751481
vt 0.669312 1.000000
vt 0.586219 1.000000
vt 0.586219 0.751481
vt 1.000000 0.000000
vt 1.000000 0.248518
vt 0.503126 0.502963
vt 0.420033 0.502963
vt 0.923160 0.497037
vt 1.000000 0.497037
vt 0.586219 0.177838
vt 0.503126 0.177838
vt 0.503126 0.000000
vt 0.586219 0.000000
vt 0.420033 0.177838
vt 0.336941 0.177838
vt 0.336941 0.000000
vt 0.420033 0.000000
vt 0.249278 0.864055
vt 0.000000 0.864055
vt 0.166186 0.325125
vt 0.249278 0.325125
vt 0.166186 0.502963
vt 0.994631 0.502963
vt 0.994631 0.751481
vt 0.000000 0.325125
vt 0.083093 0.325125
vt 0.083093 0.502963
vt 0.503126 0.361092
vt 0.420033 0.361092
vt 0.586219 0.361092
vt 0.083093 0.141870
vt 0.166186 0.141870
vt 0.000000 0.141870
vt 0.923160 0.751481
vt 0.959660 0.751481
vt 0.959660 1.000000
vt 0.923160 1.000000
vt 0.249278 0.141870
vt 0.673881 0.065264
vt 0.923160 0.065264
vt 0.336941 0.361092
vt 0.278242 0.751481
vt 0.278241 0.502963
vt 0.458054 0.502963
vt 0.458054 0.751481
vt 0.249278 0.751481
vt 0.293109 0.141870
vt 0.293109 0.112996
vt 0.336941 0.112996
vt 0.336941 0.141870
vt 0.630050 0.389967
vt 0.630050 0.361092
vt 0.673881 0.361092
vt 0.673881 0.389967
vt 0.293110 0.751481
vt 0.293110 1.000000
vt 0.249278 1.000000
vt 0.879328 1.000000
vt 0.879328 0.751481
vt 0.336941 0.321135
vt 0.293109 0.321135
vt 0.630050 0.181828
vt 0.673881 0.181828
vn -0.000000 0.000000 1.000000
vn 0.000000 1.000000 -0.000000
vn 1.000000 -0.000000 0.000000
vn -1.000000 0.000000 -0.000000
vn 0.000000 0.000000 -1.000000
vn 0.000000 -1.000000 0.000000
usemtl Material.001
s off
f 2/1/1 3/2/1 25/3/1 22/4/1
f 14/5/2 15/6/2 7/7/2 6/8/2
f 36/9/3 14/10/3 6/11/3 30/12/3
f 30/13/1 6/14/1 7/15/1 31/16/1
f 34/17/4 16/18/4 8/19/4 32/20/4
f 41/21/5 1/22/5 4/23/5 44/24/5
f 31/25/4 7/26/4 15/27/4 33/28/4
f 33/28/4 15/27/4 16/18/4 34/17/4
f 29/29/3 5/30/3 13/31/3 35/32/3
f 35/32/3 13/31/3 14/10/3 36/9/3
f 5/33/2 8/34/2 16/6/2 13/5/2
f 16/18/4 15/27/4 19/35/4 20/36/4
f 11/37/5 10/38/5 21/39/5 28/40/5
f 9/41/6 10/42/6 11/43/6 12/44/6
f 17/45/2 20/46/2 19/47/2 18/48/2
f 13/49/5 16/50/5 20/2/5 17/15/5
f 14/10/3 13/31/3 17/51/3 18/52/3
f 15/53/1 14/2/1 18/50/1 19/54/1
f 21/45/6 22/41/6 25/44/6 28/46/6
f 23/33/6 27/48/6 26/47/6 24/34/6
f 1/55/3 9/56/3 27/57/3 23/58/3
f 10/59/3 2/60/3 22/61/3 21/62/3
f 4/23/5 1/22/5 23/63/5 24/64/5
f 12/65/4 4/66/4 24/21/4 26/67/4
f 9/68/1 12/69/1 26/40/1 27/39/1
f 3/70/4 11/71/4 28/72/4 25/24/4
f 39/73/3 35/32/3 36/9/3 40/74/3
f 41/75/3 29/29/3 35/32/3 39/73/3
f 37/76/4 33/28/4 34/17/4 38/77/4
f 43/78/4 31/25/4 33/28/4 37/76/4
f 5/79/5 29/80/5 32/81/5 8/82/5
f 38/77/4 34/17/4 32/20/4 44/83/4
f 42/84/1 30/13/1 31/16/1 43/85/1
f 40/74/3 36/9/3 30/12/3 42/86/3
f 10/59/3 40/74/3 42/86/3 2/60/3
f 2/1/1 42/84/1 43/85/1 3/2/1
f 12/65/4 38/77/4 44/83/4 4/66/4
f 3/70/4 43/78/4 37/76/4 11/71/4
f 11/71/4 37/76/4 38/77/4 12/65/4
f 1/55/3 41/75/3 39/73/3 9/56/3
f 9/56/3 39/73/3 40/74/3 10/59/3
f 47/87/5 45/88/5 53/89/5 54/90/5
f 46/21/5 45/88/5 47/87/5 48/91/5
f 49/92/4 51/93/4 48/94/4 47/95/4
f 52/96/3 50/97/3 45/98/3 46/99/3
f 51/100/2 52/101/2 46/102/2 48/91/2
f 32/8/2 29/7/2 52/101/2 51/100/2
f 29/29/3 41/75/3 50/97/3 52/96/3
f 44/83/4 32/20/4 51/93/4 49/92/4
f 41/79/6 44/82/6 49/103/6 50/104/6
f 56/104/6 55/103/6 54/43/6 53/42/6
f 50/38/1 49/37/1 55/90/1 56/89/1
f 49/92/4 47/95/4 54/105/4 55/106/4
f 45/98/3 50/97/3 56/107/3 53/108/3
