# Blender v2.76 (sub 0) OBJ File: ''
# www.blender.org
mtllib kol.mtl
o Cube
v 0.500162 1.467501 -0.696823
v -0.500162 1.467502 -0.696823
v 0.500162 1.467501 -1.017802
v -0.500162 1.467502 -1.017802
v 0.500163 2.170829 -1.017802
v 0.500163 2.170829 -0.696823
v -0.500162 2.170830 -1.017802
v -0.500162 2.170830 -0.696823
v -0.500162 1.819166 -1.017802
v 0.500162 1.819165 -1.017802
v -0.500162 1.819166 -0.696823
v 0.500162 1.819165 -0.696823
v 0.500163 2.170829 -3.010550
v -0.500162 2.170830 -3.010550
v -0.500162 1.819166 -3.010550
v 0.500162 1.819165 -3.010550
vt 0.377559 0.500000
vt 0.000000 0.500000
vt 0.000000 0.000000
vt 0.377559 0.000000
vt 0.438374 0.000000
vt 0.092034 0.860666
vt 0.092034 0.918760
vt 0.000000 0.918760
vt 0.276101 0.860666
vt 0.368135 0.860666
vt 0.368135 0.918760
vt 0.907966 0.500000
vt 0.815933 0.500000
vt 0.815933 0.000000
vt 1.000000 0.500000
vt 0.907966 0.000000
vt 0.184067 0.860666
vt 0.276101 0.918760
vt 0.184067 0.918760
vt 0.815933 1.000000
vt 0.723899 1.000000
vt 0.723899 0.500000
vt 0.907966 1.000000
vt 0.438374 0.500000
vt 0.000000 0.860666
vt 0.092034 0.500000
vt 0.276101 0.500000
vt 0.368135 0.500000
vt 1.000000 0.000000
vn 0.000000 1.000000 -0.000000
vn -1.000000 0.000000 -0.000000
vn 1.000000 -0.000000 -0.000000
vn 0.000000 0.000000 1.000000
vn 0.000000 -0.000000 -1.000000
vn -0.000000 -1.000000 -0.000000
usemtl Material.001
s off
f 5/1/1 13/2/1 14/3/1
f 5/1/1 7/4/1 8/5/1
f 9/6/2 11/7/2 8/8/2
f 10/9/3 5/10/3 6/11/3
f 12/12/4 6/13/4 8/14/4
f 1/15/4 12/12/4 11/16/4
f 3/17/3 10/9/3 12/18/3
f 2/19/2 11/7/2 9/6/2
f 4/20/5 9/21/5 10/22/5
f 15/23/5 14/20/5 13/13/5
f 9/13/6 15/24/6 16/5/6
f 7/25/2 14/2/2 15/26/2
f 10/9/3 16/27/3 13/28/3
f 7/4/1 5/1/1 14/3/1
f 6/24/1 5/1/1 8/5/1
f 7/25/2 9/6/2 8/8/2
f 12/18/3 10/9/3 6/11/3
f 11/16/4 12/12/4 8/14/4
f 2/29/4 1/15/4 11/16/4
f 1/19/3 3/17/3 12/18/3
f 4/17/2 2/19/2 9/6/2
f 3/13/5 4/20/5 10/22/5
f 16/12/5 15/23/5 13/13/5
f 10/14/6 9/13/6 16/5/6
f 9/6/2 7/25/2 15/26/2
f 5/10/3 10/9/3 13/28/3
