# Blender v2.76 (sub 0) OBJ File: ''
# www.blender.org
mtllib kol.mtl
o Cube
v 0.500162 2.561922 -1.000000
v -0.500162 2.561922 -1.000000
v 0.500162 2.240943 -1.000000
v -0.500162 2.240943 -1.000000
v 0.500163 2.240943 -1.703328
v 0.500163 2.561922 -1.703328
v -0.500162 2.240943 -1.703328
v -0.500162 2.561922 -1.703328
v -0.500162 2.240943 -1.351664
v 0.500162 2.240943 -1.351664
v -0.500162 2.561922 -1.351664
v 0.500162 2.561922 -1.351664
v 0.500163 0.248195 -1.703328
v -0.500162 0.248195 -1.703328
v -0.500162 0.248195 -1.351664
v 0.500162 0.248195 -1.351664
v -0.178651 4.795491 -0.996801
v -0.178651 4.853826 -0.996801
v -0.178651 4.795491 -1.055135
v -0.178651 4.853826 -1.055135
v -0.120316 4.795491 -0.996801
v -0.120316 4.853826 -0.996801
v -0.120316 4.795491 -1.055135
v -0.120316 4.853826 -1.055135
vt 0.377559 0.500000
vt 0.000000 0.500000
vt 0.000000 0.000000
vt 0.377559 0.000000
vt 0.438374 0.000000
vt 0.092034 0.918760
vt 0.000000 0.918760
vt 0.000000 0.860666
vt 0.276101 0.860666
vt 0.368135 0.860666
vt 0.368135 0.918760
vt 0.907966 0.500000
vt 0.815933 0.500000
vt 0.815933 0.000000
vt 1.000000 0.500000
vt 0.907966 0.000000
vt 0.184067 0.860666
vt 0.276101 0.918760
vt 0.184067 0.918760
vt 0.092034 0.860666
vt 0.815933 1.000000
vt 0.723899 1.000000
vt 0.723899 0.500000
vt 0.907966 1.000000
vt 0.438374 0.500000
vt 0.092034 0.500000
vt 0.276101 0.500000
vt 0.368135 0.500000
vt 0.420773 0.500000
vt 0.431825 0.500000
vt 0.431825 0.514584
vt 0.409720 0.529158
vt 0.398668 0.529158
vt 0.398668 0.500000
vt 0.442877 0.514584
vt 0.442877 0.529167
vt 0.420773 0.529158
vt 0.409720 0.500000
vt 0.383401 0.500000
vt 0.383401 0.529158
vt 0.368135 0.529158
vt 1.000000 0.000000
vt 0.420773 0.514584
vt 0.431825 0.529167
vn 0.000000 0.000000 -1.000000
vn -1.000000 0.000000 -0.000000
vn 1.000000 0.000000 0.000000
vn 0.000000 1.000000 -0.000000
vn 0.000000 -1.000000 -0.000000
vn -0.000000 0.000000 1.000000
usemtl Material.001
s off
f 5/1/1 13/2/1 14/3/1
f 5/1/1 7/4/1 8/5/1
f 11/6/2 8/7/2 7/8/2
f 10/9/3 5/10/3 6/11/3
f 12/12/4 6/13/4 8/14/4
f 1/15/4 12/12/4 11/16/4
f 3/17/3 10/9/3 12/18/3
f 2/19/2 11/6/2 9/20/2
f 4/21/5 9/22/5 10/23/5
f 15/24/5 14/21/5 13/13/5
f 9/13/6 15/25/6 16/5/6
f 7/8/2 14/2/2 15/26/2
f 10/9/3 16/27/3 13/28/3
f 20/29/2 19/30/2 17/31/2
f 24/32/1 23/33/1 19/34/1
f 22/31/3 21/35/3 23/36/3
f 18/37/6 17/32/6 21/38/6
f 19/39/5 23/40/5 21/41/5
f 24/40/4 20/39/4 18/34/4
f 7/4/1 5/1/1 14/3/1
f 6/25/1 5/1/1 8/5/1
f 9/20/2 11/6/2 7/8/2
f 12/18/3 10/9/3 6/11/3
f 11/16/4 12/12/4 8/14/4
f 2/42/4 1/15/4 11/16/4
f 1/19/3 3/17/3 12/18/3
f 4/17/2 2/19/2 9/20/2
f 3/13/5 4/21/5 10/23/5
f 16/12/5 15/24/5 13/13/5
f 10/14/6 9/13/6 16/5/6
f 9/20/2 7/8/2 15/26/2
f 5/10/3 10/9/3 13/28/3
f 18/43/2 20/29/2 17/31/2
f 20/38/1 24/32/1 19/34/1
f 24/44/3 22/31/3 23/36/3
f 22/29/6 18/37/6 21/38/6
f 17/28/5 19/39/5 21/41/5
f 22/33/4 24/40/4 18/34/4
