# Blender v2.79 (sub 0) OBJ File: ''
# www.blender.org
mtllib sandalye.mtl
o Cube
v 1.000000 -0.193715 -1.000000
v 1.000000 -0.193715 1.000000
v -1.000000 -0.193715 1.000000
v -1.000000 -0.193715 -1.000000
v 1.000000 0.193715 -0.999999
v 0.999999 0.193715 1.000001
v -1.000000 0.193715 1.000000
v -1.000000 0.193715 -1.000000
v 1.000000 -0.193715 -0.681838
v -1.000000 -0.193715 -0.681838
v 1.000000 0.193715 -0.681838
v -1.000000 0.193715 -0.681838
v 1.000000 -0.193715 0.643043
v 1.000000 0.193715 0.643044
v -1.000000 -0.193715 0.643043
v -1.000000 0.193715 0.643043
v -0.605870 -0.193715 -1.000000
v -0.605870 -0.193715 1.000000
v -0.605870 0.193715 -1.000000
v -0.605871 0.193715 1.000000
v -0.605870 0.193715 -0.681838
v -0.605870 -0.193715 -0.681838
v -0.605871 0.193715 0.643043
v -0.605870 -0.193715 0.643043
v 0.699378 0.193715 -0.681838
v 0.699377 0.193715 0.643043
v 0.699377 -0.193715 -1.000000
v 0.699377 -0.193715 1.000000
v 0.699378 0.193715 -1.000000
v 0.699377 0.193715 1.000000
v 0.699377 -0.193715 -0.681838
v 0.699377 -0.193715 0.643043
v 1.000000 1.480103 0.643044
v 0.999999 1.480103 1.000001
v 1.000000 1.480103 -0.999999
v 1.000000 1.480103 -0.681838
v 0.699378 1.480103 -0.681838
v 0.699377 1.480103 0.643043
v 0.699378 1.480103 -1.000000
v 0.699377 1.480103 1.000000
v 1.000000 -1.410254 0.643043
v 1.000000 -1.410254 1.000000
v -0.605870 -1.410254 -1.000000
v -1.000000 -1.410254 -1.000000
v -0.605870 -1.410254 1.000000
v -1.000000 -1.410254 1.000000
v -1.000000 -1.410254 -0.681838
v 1.000000 -1.410254 -1.000000
v 1.000000 -1.410254 -0.681838
v -0.605870 -1.410254 -0.681838
v -1.000000 -1.410254 0.643043
v -0.605870 -1.410254 0.643043
v 0.699377 -1.410254 -1.000000
v 0.699377 -1.410254 1.000000
v 0.699377 -1.410254 -0.681838
v 0.699377 -1.410254 0.643043
vn 0.0000 0.0000 -1.0000
vn 0.0000 1.0000 0.0000
vn 1.0000 0.0000 0.0000
vn 0.0000 0.0000 1.0000
vn -1.0000 -0.0000 -0.0000
vn 0.0000 -1.0000 0.0000
usemtl Material
s off
f 1//1 53//1 27//1
f 23//2 7//2 20//2
f 14//3 2//3 13//3
f 20//4 3//4 18//4
f 12//5 4//5 10//5
f 17//1 8//1 19//1
f 16//5 10//5 15//5
f 5//3 9//3 1//3
f 19//2 12//2 21//2
f 28//4 42//4 2//4
f 7//5 15//5 3//5
f 11//3 13//3 9//3
f 21//2 16//2 23//2
f 24//6 10//6 22//6
f 32//6 22//6 31//6
f 25//2 23//2 26//2
f 31//6 17//6 27//6
f 19//2 25//2 29//2
f 29//1 17//1 19//1
f 30//4 18//4 28//4
f 23//2 30//2 26//2
f 28//6 24//6 32//6
f 17//1 44//1 4//1
f 25//5 39//5 29//5
f 6//4 28//4 2//4
f 1//1 29//1 5//1
f 5//3 36//3 11//3
f 10//4 50//4 22//4
f 26//5 37//5 25//5
f 13//6 31//6 9//6
f 38//2 34//2 33//2
f 39//2 36//2 35//2
f 37//2 33//2 36//2
f 14//3 34//3 6//3
f 29//1 35//1 5//1
f 30//5 38//5 26//5
f 6//4 40//4 30//4
f 11//3 33//3 14//3
f 45//6 51//6 52//6
f 50//6 44//6 43//6
f 41//6 54//6 56//6
f 48//6 55//6 53//6
f 32//5 54//5 28//5
f 9//3 48//3 1//3
f 27//5 55//5 31//5
f 2//3 41//3 13//3
f 15//5 46//5 3//5
f 13//1 56//1 32//1
f 4//5 47//5 10//5
f 31//4 49//4 9//4
f 22//3 43//3 17//3
f 24//1 51//1 15//1
f 18//3 52//3 24//3
f 3//4 45//4 18//4
f 1//1 48//1 53//1
f 23//2 16//2 7//2
f 14//3 6//3 2//3
f 20//4 7//4 3//4
f 12//5 8//5 4//5
f 17//1 4//1 8//1
f 16//5 12//5 10//5
f 5//3 11//3 9//3
f 19//2 8//2 12//2
f 28//4 54//4 42//4
f 7//5 16//5 15//5
f 11//3 14//3 13//3
f 21//2 12//2 16//2
f 24//6 15//6 10//6
f 32//6 24//6 22//6
f 25//2 21//2 23//2
f 31//6 22//6 17//6
f 19//2 21//2 25//2
f 29//1 27//1 17//1
f 30//4 20//4 18//4
f 23//2 20//2 30//2
f 28//6 18//6 24//6
f 17//1 43//1 44//1
f 25//5 37//5 39//5
f 6//4 30//4 28//4
f 1//1 27//1 29//1
f 5//3 35//3 36//3
f 10//4 47//4 50//4
f 26//5 38//5 37//5
f 13//6 32//6 31//6
f 38//2 40//2 34//2
f 39//2 37//2 36//2
f 37//2 38//2 33//2
f 14//3 33//3 34//3
f 29//1 39//1 35//1
f 30//5 40//5 38//5
f 6//4 34//4 40//4
f 11//3 36//3 33//3
f 45//6 46//6 51//6
f 50//6 47//6 44//6
f 41//6 42//6 54//6
f 48//6 49//6 55//6
f 32//5 56//5 54//5
f 9//3 49//3 48//3
f 27//5 53//5 55//5
f 2//3 42//3 41//3
f 15//5 51//5 46//5
f 13//1 41//1 56//1
f 4//5 44//5 47//5
f 31//4 55//4 49//4
f 22//3 50//3 43//3
f 24//1 52//1 51//1
f 18//3 45//3 52//3
f 3//4 46//4 45//4
