# Blender v2.76 (sub 0) OBJ File: ''
# www.blender.org
mtllib vazo.mtl
o Cylinder_Cylinder.001
v 0.000000 -0.208050 -1.000000
v 0.000000 0.208050 -0.794445
v 0.587785 -0.208050 -0.809017
v 0.466963 0.208050 -0.642720
v 0.951057 -0.208050 -0.309017
v 0.755562 0.208050 -0.245497
v 0.951056 -0.208050 0.309017
v 0.755562 0.208050 0.245497
v 0.587785 -0.208050 0.809017
v 0.466963 0.208050 0.642720
v -0.000000 -0.208050 1.000000
v -0.000000 0.208050 0.794445
v -0.587785 -0.208050 0.809017
v -0.466963 0.208050 0.642720
v -0.951056 -0.208050 0.309017
v -0.755562 0.208050 0.245497
v -0.951056 -0.208050 -0.309017
v -0.755562 0.208050 -0.245497
v -0.587785 -0.208050 -0.809017
v -0.466963 0.208050 -0.642720
v 0.590075 0.549289 -0.812169
v 0.000000 0.549289 -1.003896
v 0.954762 0.549289 -0.310221
v 0.954762 0.549289 0.310221
v 0.590075 0.549289 0.812169
v -0.000000 0.549289 1.003896
v -0.590075 0.549289 0.812169
v -0.954762 0.549289 0.310221
v -0.954762 0.549289 -0.310221
v -0.590075 0.549289 -0.812169
v 0.764547 0.742179 -1.052309
v -0.000000 0.742179 -1.300725
v 1.237063 0.742179 -0.401946
v 1.237063 0.742179 0.401946
v 0.764547 0.742179 1.052309
v -0.000000 0.742179 1.300725
v -0.764547 0.742179 1.052309
v -1.237063 0.742179 0.401946
v -1.237063 0.742179 -0.401946
v -0.764547 0.742179 -1.052309
v 0.844492 1.109583 -1.162343
v 0.000000 1.109583 -1.436735
v 1.366416 1.109583 -0.443976
v 1.366416 1.109583 0.443976
v 0.844492 1.109583 1.162343
v -0.000000 1.109583 1.436735
v -0.844492 1.109583 1.162343
v -1.366416 1.109583 0.443976
v -1.366416 1.109583 -0.443976
v -0.844491 1.109583 -1.162344
v 0.534023 1.496615 -0.735020
v 0.000000 1.496615 -0.908534
v 0.864067 1.496615 -0.280753
v 0.864067 1.496615 0.280753
v 0.534023 1.496615 0.735020
v -0.000000 1.496615 0.908534
v -0.534023 1.496615 0.735020
v -0.864067 1.496615 0.280753
v -0.864067 1.496615 -0.280753
v -0.534023 1.496615 -0.735020
v 0.670887 1.660713 -0.923396
v -0.000000 1.660713 -1.141381
v 1.085517 1.660713 -0.352706
v 1.085517 1.660713 0.352706
v 0.670887 1.660713 0.923396
v -0.000000 1.660713 1.141381
v -0.670887 1.660713 0.923396
v -1.085517 1.660713 0.352706
v -1.085517 1.660713 -0.352706
v -0.670886 1.660713 -0.923396
vt 0.582498 0.990416
vt 0.565539 0.772113
vt 0.604348 0.771818
vt 0.176147 0.219591
vt 0.137384 0.221744
vt 0.143583 0.002710
vt 0.089471 0.221744
vt 0.083272 0.002710
vt 0.050708 0.219591
vt 0.034479 0.000000
vt 0.660053 0.773492
vt 0.707956 0.772302
vt 0.718395 0.991129
vt 0.746751 0.773492
vt 0.767229 0.992627
vt 0.268243 0.773492
vt 0.307039 0.772302
vt 0.296599 0.991129
vt 0.354941 0.773492
vt 0.356896 0.992627
vt 0.479102 0.779727
vt 0.453656 0.599311
vt 0.502429 0.593506
vt 0.517699 0.775133
vt 0.473697 1.000000
vt 0.788139 0.328593
vt 0.973757 0.328593
vt 0.938307 0.452134
vt 0.192683 0.401331
vt 0.216117 0.504846
vt 0.152652 0.508371
vt 0.650208 0.591385
vt 0.710739 0.589881
vt 0.759763 0.591385
vt 0.143701 0.404052
vt 0.255231 0.591385
vt 0.304255 0.589881
vt 0.083155 0.404052
vt 0.562881 0.589689
vt 0.611921 0.589317
vt 0.364787 0.591385
vt 0.034172 0.401331
vt 0.010738 0.504846
vt 0.074204 0.508371
vt 0.070102 0.704023
vt 0.233808 0.487313
vt 0.297327 0.485365
vt 0.639238 0.487313
vt 0.488362 0.489913
vt 0.566688 0.484967
vt 0.375756 0.487313
vt 0.630229 0.484486
vt 0.717667 0.485365
vt 0.781186 0.487313
vt 0.439138 0.492413
vt 0.297016 0.289658
vt 0.316840 0.088761
vt 0.371621 0.090122
vt 0.383646 0.291810
vt 0.226855 0.700130
vt 0.156753 0.704023
vt 0.226855 0.291810
vt 0.631348 0.291810
vt 0.717978 0.289658
vt 0.474647 0.294823
vt 0.561163 0.289360
vt 0.631348 0.288828
vt 0.643373 0.090122
vt 0.634637 0.001709
vt 0.703458 0.000000
vt 0.535360 0.089336
vt 0.788139 0.291810
vt 0.698154 0.088761
vt 0.086030 0.905364
vt 0.041701 0.902902
vt 0.415893 0.093684
vt 0.185155 0.902902
vt 0.272473 0.090122
vt 0.480650 0.092790
vt 0.140825 0.905364
vt 0.788139 0.165094
vt 0.959538 0.024087
vt 0.894069 0.252241
vt 0.469282 0.004762
vt 0.538013 0.000422
vt 0.147847 0.993972
vt 0.311536 0.000000
vt 0.380357 0.001709
vt 0.593770 0.000000
vt 0.759195 0.001709
vt 0.079009 0.993972
vt 0.435975 0.006185
vt 0.203537 0.990879
vt 0.255799 0.001709
vt 0.631348 0.990045
vt 0.192376 0.000000
vt 0.658099 0.992627
vt 0.247766 0.992627
vt 0.522280 0.994218
vt 0.880948 0.473237
vt 0.823589 0.452134
vt 0.788139 0.396885
vt 0.823589 0.273344
vt 0.880948 0.252241
vt 0.938307 0.273344
vt 0.973757 0.396885
vt 0.000000 0.700130
vt 0.413705 0.595321
vt 0.453656 0.297443
vt 0.579742 0.088999
vt 0.742521 0.090122
vt 1.000000 0.165094
vt 0.959538 0.228154
vt 0.828601 0.228154
vt 0.788139 0.087147
vt 0.828601 0.024087
vt 0.894069 0.000000
vt 1.000000 0.087147
vt 0.023318 0.990879
vn 0.279700 0.425200 -0.860800
vn 0.732200 0.425200 -0.532000
vn 0.905100 0.425200 0.000000
vn 0.732200 0.425200 0.532000
vn 0.279700 0.425200 0.860800
vn -0.279700 0.425200 0.860800
vn -0.732200 0.425200 0.532000
vn -0.905100 0.425200 0.000000
vn -0.698700 -0.504100 -0.507600
vn -0.279700 0.425200 -0.860800
vn -0.732200 0.425200 -0.532000
vn 0.000000 -1.000000 0.000000
vn 0.456400 -0.825700 -0.331600
vn 0.266900 -0.504100 0.821400
vn -0.266900 -0.504100 -0.821400
vn -0.266900 -0.504100 0.821400
vn 0.698700 -0.504100 -0.507600
vn -0.698700 -0.504100 0.507600
vn 0.863600 -0.504100 -0.000000
vn 0.266900 -0.504100 -0.821400
vn -0.863600 -0.504100 0.000000
vn 0.698700 -0.504100 0.507600
vn 0.763100 -0.332100 0.554400
vn -0.456400 -0.825700 0.331600
vn 0.174300 -0.825700 0.536500
vn -0.174300 -0.825700 -0.536500
vn 0.564200 -0.825700 -0.000000
vn -0.564200 -0.825700 0.000000
vn 0.174300 -0.825700 -0.536500
vn -0.174300 -0.825700 0.536500
vn 0.456400 -0.825700 0.331600
vn -0.456400 -0.825700 -0.331600
vn -0.610300 0.792200 -0.000000
vn -0.763100 -0.332100 -0.554400
vn 0.763100 -0.332100 -0.554400
vn -0.763100 -0.332100 0.554400
vn 0.291500 -0.332100 0.897100
vn -0.291500 -0.332100 -0.897100
vn 0.943200 -0.332100 0.000000
vn -0.943200 -0.332100 -0.000000
vn 0.291500 -0.332100 -0.897100
vn -0.291500 -0.332100 0.897100
vn 0.184000 -0.803500 0.566200
vn 0.188600 0.792200 -0.580400
vn -0.188600 0.792200 0.580400
vn 0.493800 0.792200 0.358700
vn -0.493800 0.792200 -0.358700
vn 0.493800 0.792200 -0.358700
vn -0.493800 0.792200 0.358700
vn 0.188600 0.792200 0.580400
vn -0.188600 0.792200 -0.580400
vn 0.610300 0.792200 0.000000
vn 0.000000 1.000000 -0.000000
vn -0.184000 -0.803500 -0.566200
vn 0.595400 -0.803500 -0.000000
vn -0.595400 -0.803500 0.000000
vn 0.184000 -0.803500 -0.566200
vn -0.184000 -0.803500 0.566200
vn 0.481700 -0.803500 0.350000
vn -0.481700 -0.803500 -0.350000
vn 0.481700 -0.803500 -0.350000
vn -0.481700 -0.803500 0.350000
g Cylinder_Cylinder.001_Material.002
usemtl Material.002
s off
f 1/1/1 2/2/1 4/3/1
f 4/4/2 6/5/2 5/6/2
f 6/5/3 8/7/3 7/8/3
f 8/7/4 10/9/4 9/10/4
f 10/11/5 12/12/5 11/13/5
f 12/12/6 14/14/6 13/15/6
f 14/16/7 16/17/7 15/18/7
f 16/17/8 18/19/8 17/20/8
f 18/21/9 29/22/9 30/23/9
f 20/24/10 2/2/10 1/1/10
f 17/25/11 18/21/11 20/24/11
f 7/26/12 15/27/12 19/28/12
f 21/29/13 31/30/13 33/31/13
f 10/11/14 25/32/14 26/33/14
f 2/2/15 20/24/15 30/23/15
f 12/12/16 26/33/16 27/34/16
f 4/4/17 21/29/17 23/35/17
f 14/16/18 27/36/18 28/37/18
f 6/5/19 23/35/19 24/38/19
f 2/2/20 22/39/20 21/40/20
f 16/17/21 28/37/21 29/41/21
f 8/7/22 24/38/22 25/42/22
f 35/43/23 34/44/23 44/45/23
f 27/36/24 37/46/24 38/47/24
f 26/33/25 25/32/25 35/48/25
f 30/23/26 40/49/26 32/50/26
f 23/35/27 33/31/27 34/44/27
f 28/37/28 38/47/28 39/51/28
f 22/39/29 32/50/29 31/52/29
f 26/33/30 36/53/30 37/54/30
f 24/38/31 34/44/31 35/43/31
f 29/41/32 39/51/32 40/55/32
f 48/56/33 58/57/33 59/58/33
f 40/55/34 39/51/34 49/59/34
f 31/30/35 41/60/35 43/61/35
f 37/46/36 47/62/36 48/56/36
f 35/48/37 45/63/37 46/64/37
f 40/49/38 50/65/38 42/66/38
f 33/31/39 43/61/39 44/45/39
f 38/47/40 48/56/40 49/59/40
f 32/50/41 42/66/41 41/67/41
f 37/54/42 36/53/42 46/64/42
f 55/68/43 65/69/43 66/70/43
f 41/67/44 42/66/44 52/71/44
f 47/72/45 46/64/45 56/73/45
f 44/45/46 54/74/46 55/75/46
f 49/59/47 59/58/47 60/76/47
f 43/61/48 41/60/48 51/77/48
f 48/56/49 47/62/49 57/78/49
f 45/63/50 55/68/50 56/73/50
f 50/65/51 60/79/51 52/71/51
f 43/61/52 53/80/52 54/74/52
f 69/81/53 65/82/53 62/83/53
f 60/79/54 70/84/54 62/85/54
f 54/74/55 53/80/55 63/86/55
f 58/57/56 68/87/56 69/88/56
f 52/71/57 62/85/57 61/89/57
f 56/73/58 66/70/58 67/90/58
f 55/75/59 54/74/59 64/91/59
f 59/58/60 69/88/60 70/92/60
f 51/77/61 61/93/61 63/86/61
f 57/78/62 67/94/62 68/87/62
f 3/95/1 1/1/1 4/3/1
f 3/96/2 4/4/2 5/6/2
f 5/6/3 6/5/3 7/8/3
f 7/8/4 8/7/4 9/10/4
f 9/97/5 10/11/5 11/13/5
f 11/13/6 12/12/6 13/15/6
f 13/98/7 14/16/7 15/18/7
f 15/18/8 16/17/8 17/20/8
f 20/24/9 18/21/9 30/23/9
f 19/99/10 20/24/10 1/1/10
f 19/99/11 17/25/11 20/24/11
f 19/28/12 1/100/12 3/101/12
f 3/101/12 5/102/12 19/28/12
f 7/26/12 9/103/12 11/104/12
f 11/104/12 13/105/12 15/27/12
f 15/27/12 17/106/12 19/28/12
f 19/28/12 5/102/12 7/26/12
f 7/26/12 11/104/12 15/27/12
f 23/35/13 21/29/13 33/31/13
f 12/12/14 10/11/14 26/33/14
f 22/39/15 2/2/15 30/23/15
f 14/14/16 12/12/16 27/34/16
f 6/5/17 4/4/17 23/35/17
f 16/17/18 14/16/18 28/37/18
f 8/7/19 6/5/19 24/38/19
f 4/3/20 2/2/20 21/40/20
f 18/19/21 16/17/21 29/41/21
f 10/9/22 8/7/22 25/42/22
f 45/107/23 35/43/23 44/45/23
f 28/37/24 27/36/24 38/47/24
f 36/53/25 26/33/25 35/48/25
f 22/39/26 30/23/26 32/50/26
f 24/38/27 23/35/27 34/44/27
f 29/41/28 28/37/28 39/51/28
f 21/40/29 22/39/29 31/52/29
f 27/34/30 26/33/30 37/54/30
f 25/42/31 24/38/31 35/43/31
f 30/108/32 29/41/32 40/55/32
f 49/59/33 48/56/33 59/58/33
f 50/109/34 40/55/34 49/59/34
f 33/31/35 31/30/35 43/61/35
f 38/47/36 37/46/36 48/56/36
f 36/53/37 35/48/37 46/64/37
f 32/50/38 40/49/38 42/66/38
f 34/44/39 33/31/39 44/45/39
f 39/51/40 38/47/40 49/59/40
f 31/52/41 32/50/41 41/67/41
f 47/72/42 37/54/42 46/64/42
f 56/73/43 55/68/43 66/70/43
f 51/110/44 41/67/44 52/71/44
f 57/111/45 47/72/45 56/73/45
f 45/107/46 44/45/46 55/75/46
f 50/109/47 49/59/47 60/76/47
f 53/80/48 43/61/48 51/77/48
f 58/57/49 48/56/49 57/78/49
f 46/64/50 45/63/50 56/73/50
f 42/66/51 50/65/51 52/71/51
f 44/45/52 43/61/52 54/74/52
f 63/112/53 61/113/53 62/83/53
f 62/83/53 70/114/53 69/81/53
f 69/81/53 68/115/53 67/116/53
f 67/116/53 66/117/53 69/81/53
f 65/82/53 64/118/53 63/112/53
f 63/112/53 62/83/53 65/82/53
f 69/81/53 66/117/53 65/82/53
f 52/71/54 60/79/54 62/85/54
f 64/91/55 54/74/55 63/86/55
f 59/58/56 58/57/56 69/88/56
f 51/110/57 52/71/57 61/89/57
f 57/111/58 56/73/58 67/90/58
f 65/119/59 55/75/59 64/91/59
f 60/76/60 59/58/60 70/92/60
f 53/80/61 51/77/61 63/86/61
f 58/57/62 57/78/62 68/87/62
