# Blender v2.79 (sub 0) OBJ File: ''
# www.blender.org
mtllib vazo.mtl
o Cylinder
v 0.000000 -0.142169 -1.000000
v 0.000000 0.142169 -1.000000
v 0.500000 -0.142169 -0.866025
v 0.500000 0.142169 -0.866025
v 0.866025 -0.142169 -0.500000
v 0.866025 0.142169 -0.500000
v 1.000000 -0.142169 0.000000
v 1.000000 0.142169 0.000000
v 0.866025 -0.142169 0.500000
v 0.866025 0.142169 0.500000
v 0.500000 -0.142169 0.866025
v 0.500000 0.142169 0.866025
v 0.000000 -0.142169 1.000000
v 0.000000 0.142169 1.000000
v -0.500000 -0.142169 0.866026
v -0.500000 0.142169 0.866026
v -0.866025 -0.142169 0.500000
v -0.866025 0.142169 0.500000
v -1.000000 -0.142169 0.000000
v -1.000000 0.142169 0.000000
v -0.866026 -0.142169 -0.499999
v -0.866026 0.142169 -0.499999
v -0.500001 -0.142169 -0.866025
v -0.500001 0.142169 -0.866025
v 0.603026 0.475471 -1.044472
v 0.000000 0.475471 -1.206052
v 1.044472 0.475471 -0.603026
v 1.206052 0.475471 0.000000
v 1.044472 0.475471 0.603026
v 0.603026 0.475471 1.044472
v 0.000000 0.475471 1.206052
v -0.603026 0.475471 1.044472
v -1.044471 0.475471 0.603026
v -1.206052 0.475471 0.000001
v -1.044472 0.475471 -0.603025
v -0.603027 0.475471 -1.044471
v 0.603026 0.894180 -1.044472
v -0.000000 0.894180 -1.206052
v 1.044472 0.894180 -0.603026
v 1.206052 0.894180 0.000000
v 1.044472 0.894180 0.603026
v 0.603026 0.894180 1.044472
v 0.000000 0.894180 1.206052
v -0.603026 0.894180 1.044472
v -1.044471 0.894180 0.603026
v -1.206052 0.894180 0.000001
v -1.044472 0.894180 -0.603025
v -0.603027 0.894180 -1.044471
v 0.549276 1.153509 -0.951374
v 0.000000 1.153509 -1.098552
v 0.951374 1.153509 -0.549276
v 1.098552 1.153509 0.000000
v 0.951374 1.153509 0.549276
v 0.549276 1.153509 0.951374
v 0.000000 1.153509 1.098552
v -0.549276 1.153509 0.951374
v -0.951374 1.153509 0.549276
v -1.098552 1.153509 0.000000
v -0.951374 1.153509 -0.549275
v -0.549277 1.153509 -0.951373
v 0.486117 1.554563 -0.841979
v 0.000000 1.554563 -0.972233
v 0.841979 1.554563 -0.486117
v 0.972233 1.554563 0.000000
v 0.841979 1.554563 0.486117
v 0.486117 1.554563 0.841979
v 0.000000 1.554563 0.972233
v -0.486116 1.554563 0.841979
v -0.841979 1.554563 0.486117
v -0.972233 1.554563 0.000000
v -0.841979 1.554563 -0.486116
v -0.486117 1.554563 -0.841978
v 0.604857 1.696425 -1.047643
v 0.000000 1.696425 -1.209714
v 1.047643 1.696425 -0.604857
v 1.209714 1.696425 0.000000
v 1.047643 1.696425 0.604857
v 0.604857 1.696425 1.047643
v 0.000000 1.696425 1.209714
v -0.604857 1.696425 1.047643
v -1.047643 1.696425 0.604857
v -1.209714 1.696425 0.000001
v -1.047644 1.696425 -0.604857
v -0.604858 1.696425 -1.047643
vn 0.2588 0.0000 -0.9659
vn 0.7071 0.0000 -0.7071
vn 0.9659 0.0000 -0.2588
vn 0.9659 0.0000 0.2588
vn 0.7071 0.0000 0.7071
vn 0.2588 0.0000 0.9659
vn -0.2588 0.0000 0.9659
vn -0.7071 0.0000 0.7071
vn -0.9659 0.0000 0.2588
vn -0.9659 0.0000 -0.2588
vn 0.2222 -0.5127 0.8293
vn -0.7071 0.0000 -0.7071
vn -0.2588 0.0000 -0.9659
vn 0.0000 -1.0000 -0.0000
vn 0.6071 -0.5127 -0.6071
vn -0.6071 -0.5127 -0.6071
vn -0.2222 -0.5127 0.8293
vn 0.8293 -0.5127 -0.2222
vn -0.2222 -0.5127 -0.8293
vn 0.2222 -0.5127 -0.8293
vn -0.6071 -0.5127 0.6071
vn 0.8293 -0.5127 0.2222
vn -0.8293 -0.5127 0.2222
vn 0.6071 -0.5127 0.6071
vn -0.8293 -0.5127 -0.2222
vn -0.8967 0.3717 0.2403
vn 0.6765 0.2911 -0.6765
vn 0.6564 0.3717 -0.6564
vn -0.2403 0.3717 0.8967
vn -0.2403 0.3717 -0.8967
vn 0.6564 0.3717 0.6564
vn -0.8967 0.3717 -0.2403
vn 0.8967 0.3717 -0.2403
vn -0.6564 0.3717 0.6564
vn 0.2403 0.3717 -0.8967
vn 0.2403 0.3717 0.8967
vn -0.6564 0.3717 -0.6564
vn 0.8967 0.3717 0.2403
vn -0.1361 -0.8505 -0.5081
vn -0.2476 0.2911 0.9241
vn -0.2476 0.2911 -0.9241
vn 0.6765 0.2911 0.6765
vn -0.9241 0.2911 -0.2476
vn 0.9241 0.2911 -0.2476
vn -0.6765 0.2911 0.6765
vn 0.2476 0.2911 -0.9241
vn 0.2476 0.2911 0.9241
vn -0.6765 0.2911 -0.6765
vn 0.9241 0.2911 0.2476
vn -0.9241 0.2911 0.2476
vn 0.0000 1.0000 -0.0000
vn 0.3719 -0.8505 0.3719
vn -0.5081 -0.8505 -0.1361
vn 0.5081 -0.8505 -0.1361
vn -0.3719 -0.8505 0.3719
vn 0.1361 -0.8505 -0.5081
vn 0.1361 -0.8505 0.5081
vn -0.3719 -0.8505 -0.3719
vn 0.5081 -0.8505 0.1361
vn -0.5081 -0.8505 0.1361
vn 0.3719 -0.8505 -0.3719
vn -0.1361 -0.8505 0.5081
usemtl None
s off
f 1//1 2//1 4//1 3//1
f 3//2 4//2 6//2 5//2
f 5//3 6//3 8//3 7//3
f 7//4 8//4 10//4 9//4
f 9//5 10//5 12//5 11//5
f 11//6 12//6 14//6 13//6
f 13//7 14//7 16//7 15//7
f 15//8 16//8 18//8 17//8
f 17//9 18//9 20//9 19//9
f 19//10 20//10 22//10 21//10
f 14//11 12//11 30//11 31//11
f 21//12 22//12 24//12 23//12
f 23//13 24//13 2//13 1//13
f 1//14 3//14 5//14 7//14 9//14 11//14 13//14 15//14 17//14 19//14 21//14 23//14
f 29//4 28//4 40//4 41//4
f 6//15 4//15 25//15 27//15
f 24//16 22//16 35//16 36//16
f 16//17 14//17 31//17 32//17
f 8//18 6//18 27//18 28//18
f 2//19 24//19 36//19 26//19
f 4//20 2//20 26//20 25//20
f 18//21 16//21 32//21 33//21
f 10//22 8//22 28//22 29//22
f 20//23 18//23 33//23 34//23
f 12//24 10//24 29//24 30//24
f 22//25 20//25 34//25 35//25
f 46//26 45//26 57//26 58//26
f 34//9 33//9 45//9 46//9
f 27//2 25//2 37//2 39//2
f 32//7 31//7 43//7 44//7
f 26//13 36//13 48//13 38//13
f 30//5 29//5 41//5 42//5
f 35//10 34//10 46//10 47//10
f 28//3 27//3 39//3 40//3
f 33//8 32//8 44//8 45//8
f 25//1 26//1 38//1 37//1
f 31//6 30//6 42//6 43//6
f 36//12 35//12 47//12 48//12
f 51//27 49//27 61//27 63//27
f 39//28 37//28 49//28 51//28
f 44//29 43//29 55//29 56//29
f 38//30 48//30 60//30 50//30
f 42//31 41//31 53//31 54//31
f 47//32 46//32 58//32 59//32
f 40//33 39//33 51//33 52//33
f 45//34 44//34 56//34 57//34
f 37//35 38//35 50//35 49//35
f 43//36 42//36 54//36 55//36
f 48//37 47//37 59//37 60//37
f 41//38 40//38 52//38 53//38
f 62//39 72//39 84//39 74//39
f 56//40 55//40 67//40 68//40
f 50//41 60//41 72//41 62//41
f 54//42 53//42 65//42 66//42
f 59//43 58//43 70//43 71//43
f 52//44 51//44 63//44 64//44
f 57//45 56//45 68//45 69//45
f 49//46 50//46 62//46 61//46
f 55//47 54//47 66//47 67//47
f 60//48 59//48 71//48 72//48
f 53//49 52//49 64//49 65//49
f 58//50 57//50 69//50 70//50
f 73//51 74//51 84//51 83//51 82//51 81//51 80//51 79//51 78//51 77//51 76//51 75//51
f 66//52 65//52 77//52 78//52
f 71//53 70//53 82//53 83//53
f 64//54 63//54 75//54 76//54
f 69//55 68//55 80//55 81//55
f 61//56 62//56 74//56 73//56
f 67//57 66//57 78//57 79//57
f 72//58 71//58 83//58 84//58
f 65//59 64//59 76//59 77//59
f 70//60 69//60 81//60 82//60
f 63//61 61//61 73//61 75//61
f 68//62 67//62 79//62 80//62
