# Blender v2.79 (sub 0) OBJ File: ''
# www.blender.org
mtllib vazo.mtl
o Cylinder
v 0.000000 -0.114614 -1.000000
v 0.000000 0.114614 -0.625791
v 0.309017 -0.114614 -0.951057
v 0.193380 0.114614 -0.595163
v 0.587785 -0.114614 -0.809017
v 0.367831 0.114614 -0.506276
v 0.809017 -0.114614 -0.587785
v 0.506276 0.114614 -0.367831
v 0.951057 -0.114614 -0.309017
v 0.595163 0.114614 -0.193380
v 1.000000 -0.114614 0.000000
v 0.625791 0.114614 -0.000000
v 0.951056 -0.114614 0.309017
v 0.595163 0.114614 0.193380
v 0.809017 -0.114614 0.587785
v 0.506276 0.114614 0.367831
v 0.587785 -0.114614 0.809017
v 0.367831 0.114614 0.506275
v 0.309017 -0.114614 0.951057
v 0.193380 0.114614 0.595163
v -0.000000 -0.114614 1.000000
v -0.000000 0.114614 0.625791
v -0.309017 -0.114614 0.951056
v -0.193380 0.114614 0.595162
v -0.587786 -0.114614 0.809017
v -0.367831 0.114614 0.506275
v -0.809017 -0.114614 0.587785
v -0.506276 0.114614 0.367830
v -0.951057 -0.114614 0.309016
v -0.595163 0.114614 0.193379
v -1.000000 -0.114614 -0.000001
v -0.625791 0.114614 -0.000001
v -0.951056 -0.114614 -0.309018
v -0.595162 0.114614 -0.193381
v -0.809016 -0.114614 -0.587786
v -0.506275 0.114614 -0.367831
v -0.587784 -0.114614 -0.809018
v -0.367830 0.114614 -0.506276
v -0.309016 -0.114614 -0.951057
v -0.193379 0.114614 -0.595163
v 0.174326 0.490819 -0.536519
v 0.000000 0.490819 -0.564129
v 0.331587 0.490819 -0.456390
v 0.456390 0.490819 -0.331587
v 0.536519 0.490819 -0.174326
v 0.564129 0.490819 -0.000000
v 0.536519 0.490819 0.174325
v 0.456390 0.490819 0.331587
v 0.331587 0.490819 0.456390
v 0.174325 0.490819 0.536519
v -0.000000 0.490819 0.564129
v -0.174326 0.490819 0.536519
v -0.331587 0.490819 0.456390
v -0.456390 0.490819 0.331586
v -0.536519 0.490819 0.174325
v -0.564129 0.490819 -0.000001
v -0.536519 0.490819 -0.174326
v -0.456390 0.490819 -0.331588
v -0.331586 0.490819 -0.456391
v -0.174325 0.490819 -0.536519
v 0.214938 1.029809 -0.661512
v 0.000000 1.029809 -0.695555
v 0.408837 1.029809 -0.562716
v 0.562716 1.029809 -0.408837
v 0.661512 1.029809 -0.214938
v 0.695555 1.029809 -0.000000
v 0.661512 1.029809 0.214938
v 0.562716 1.029809 0.408837
v 0.408837 1.029809 0.562716
v 0.214938 1.029809 0.661512
v -0.000000 1.029809 0.695555
v -0.214938 1.029809 0.661512
v -0.408837 1.029809 0.562715
v -0.562716 1.029809 0.408836
v -0.661512 1.029809 0.214938
v -0.695555 1.029809 -0.000001
v -0.661512 1.029809 -0.214939
v -0.562715 1.029809 -0.408838
v -0.408836 1.029809 -0.562716
v -0.214937 1.029809 -0.661512
v 0.183920 1.530074 -0.566049
v 0.000000 1.530074 -0.595179
v 0.349837 1.530074 -0.481510
v 0.481510 1.530074 -0.349837
v 0.566049 1.530074 -0.183920
v 0.595179 1.530074 -0.000000
v 0.566049 1.530074 0.183920
v 0.481510 1.530074 0.349837
v 0.349837 1.530074 0.481510
v 0.183920 1.530074 0.566049
v -0.000000 1.530074 0.595179
v -0.183921 1.530074 0.566048
v -0.349837 1.530074 0.481509
v -0.481510 1.530074 0.349837
v -0.566049 1.530074 0.183920
v -0.595179 1.530074 -0.000001
v -0.566048 1.530074 -0.183921
v -0.481509 1.530074 -0.349838
v -0.349837 1.530074 -0.481510
v -0.183919 1.530074 -0.566049
v 0.269096 1.940652 -0.828194
v 0.000000 1.940652 -0.870814
v 0.511852 1.940652 -0.704504
v 0.704504 1.940652 -0.511852
v 0.828194 1.940652 -0.269096
v 0.870814 1.940652 -0.000000
v 0.828194 1.940652 0.269096
v 0.704504 1.940652 0.511852
v 0.511852 1.940652 0.704504
v 0.269096 1.940652 0.828194
v -0.000000 1.940652 0.870814
v -0.269097 1.940652 0.828193
v -0.511852 1.940652 0.704503
v -0.704504 1.940652 0.511851
v -0.828194 1.940652 0.269096
v -0.870814 1.940652 -0.000001
v -0.828193 1.940652 -0.269097
v -0.704503 1.940652 -0.511853
v -0.511851 1.940652 -0.704504
v -0.269095 1.940652 -0.828194
v 0.217888 1.709231 -0.670590
v 0.000000 1.709231 -0.705100
v 0.414447 1.709231 -0.570438
v 0.570438 1.709231 -0.414447
v 0.670590 1.709231 -0.217888
v 0.705100 1.709231 -0.000000
v 0.670590 1.709231 0.217888
v 0.570438 1.709231 0.414447
v 0.414447 1.709231 0.570437
v 0.217888 1.709231 0.670590
v -0.000000 1.709231 0.705099
v -0.217888 1.709231 0.670589
v -0.414447 1.709231 0.570437
v -0.570438 1.709231 0.414447
v -0.670590 1.709231 0.217887
v -0.705099 1.709231 -0.000001
v -0.670589 1.709231 -0.217889
v -0.570437 1.709231 -0.414448
v -0.414446 1.709231 -0.570438
v -0.217887 1.709231 -0.670590
vn 0.0825 0.8498 -0.5206
vn 0.2393 0.8498 -0.4696
vn 0.3727 0.8498 -0.3727
vn 0.4696 0.8498 -0.2393
vn 0.5206 0.8498 -0.0825
vn 0.5206 0.8498 0.0825
vn 0.4696 0.8498 0.2393
vn 0.3727 0.8498 0.3727
vn 0.2393 0.8498 0.4696
vn 0.0825 0.8498 0.5206
vn -0.0825 0.8498 0.5206
vn -0.2393 0.8498 0.4696
vn -0.3727 0.8498 0.3727
vn -0.4696 0.8498 0.2393
vn -0.5206 0.8498 0.0825
vn -0.5206 0.8498 -0.0825
vn -0.4696 0.8498 -0.2393
vn -0.3727 0.8498 -0.3727
vn 0.9750 0.1598 0.1544
vn -0.2393 0.8498 -0.4696
vn -0.0825 0.8498 -0.5206
vn 0.0000 -1.0000 -0.0000
vn 0.8662 -0.2341 -0.4414
vn 0.6980 0.1598 0.6980
vn 0.4482 0.1598 -0.8796
vn 0.8796 0.1598 -0.4482
vn -0.8796 0.1598 -0.4482
vn -0.4482 0.1598 -0.8796
vn -0.6980 0.1598 0.6980
vn -0.9750 0.1598 0.1544
vn 0.4482 0.1598 0.8796
vn -0.1544 0.1598 0.9750
vn 0.9750 0.1598 -0.1544
vn 0.8796 0.1598 0.4482
vn 0.6980 0.1598 -0.6980
vn -0.6980 0.1598 -0.6980
vn -0.1544 0.1598 -0.9750
vn -0.8796 0.1598 0.4482
vn -0.9750 0.1598 -0.1544
vn 0.1544 0.1598 -0.9750
vn 0.1544 0.1598 0.9750
vn -0.4482 0.1598 0.8796
vn 0.8740 0.1944 -0.4453
vn 0.6875 -0.2341 -0.6875
vn 0.4414 -0.2341 0.8662
vn -0.8662 -0.2341 0.4414
vn -0.1521 -0.2341 -0.9602
vn -0.4414 -0.2341 -0.8662
vn 0.4414 -0.2341 -0.8662
vn 0.6875 -0.2341 0.6875
vn 0.8662 -0.2341 0.4414
vn -0.6875 -0.2341 0.6875
vn -0.6875 -0.2341 -0.6875
vn 0.1521 -0.2341 -0.9602
vn 0.9602 -0.2341 0.1521
vn -0.4414 -0.2341 0.8662
vn -0.1521 -0.2341 0.9602
vn -0.8662 -0.2341 -0.4414
vn 0.9602 -0.2341 -0.1521
vn 0.1521 -0.2341 0.9602
vn -0.9602 -0.2341 -0.1521
vn -0.9602 -0.2341 0.1521
vn 0.5893 -0.5526 -0.5893
vn 0.6936 0.1944 -0.6936
vn 0.4453 0.1944 0.8740
vn -0.8740 0.1944 0.4453
vn -0.1535 0.1944 -0.9688
vn -0.4453 0.1944 -0.8740
vn 0.4453 0.1944 -0.8740
vn 0.6936 0.1944 0.6936
vn 0.8740 0.1944 0.4453
vn -0.6936 0.1944 0.6936
vn -0.6936 0.1944 -0.6936
vn 0.1535 0.1944 -0.9688
vn 0.9688 0.1944 0.1535
vn -0.4453 0.1944 0.8740
vn -0.1535 0.1944 0.9688
vn -0.8740 0.1944 -0.4453
vn 0.9688 0.1944 -0.1534
vn 0.1534 0.1944 0.9688
vn -0.9688 0.1944 -0.1535
vn -0.9688 0.1944 0.1534
vn -0.5773 0.5774 0.5773
vn 0.3784 -0.5526 0.7426
vn -0.7426 -0.5526 0.3784
vn -0.1304 -0.5526 -0.8232
vn -0.3784 -0.5526 -0.7426
vn 0.3784 -0.5526 -0.7426
vn 0.5893 -0.5526 0.5893
vn 0.7426 -0.5526 0.3784
vn -0.5893 -0.5526 0.5893
vn -0.5893 -0.5526 -0.5893
vn 0.1304 -0.5526 -0.8232
vn 0.8232 -0.5526 0.1304
vn -0.3784 -0.5526 0.7426
vn -0.1304 -0.5526 0.8232
vn -0.7426 -0.5526 -0.3784
vn 0.8232 -0.5526 -0.1304
vn 0.1304 -0.5526 0.8232
vn -0.8232 -0.5526 -0.1304
vn -0.8232 -0.5526 0.1304
vn 0.7426 -0.5526 -0.3784
vn 0.0000 1.0000 -0.0000
vn -0.3707 0.5774 -0.7275
vn 0.7275 0.5774 -0.3707
vn 0.1277 0.5774 0.8064
vn 0.3707 0.5774 0.7275
vn -0.3707 0.5774 0.7275
vn -0.5773 0.5774 -0.5773
vn -0.7275 0.5774 -0.3707
vn 0.5773 0.5774 -0.5773
vn 0.5773 0.5774 0.5773
vn -0.1277 0.5774 0.8064
vn -0.8064 0.5774 -0.1277
vn 0.3707 0.5774 -0.7275
vn 0.1277 0.5774 -0.8064
vn 0.7275 0.5774 0.3707
vn -0.8064 0.5774 0.1277
vn -0.1277 0.5774 -0.8064
vn 0.8064 0.5774 0.1277
vn 0.8064 0.5774 -0.1277
vn -0.7275 0.5774 0.3707
usemtl None
s off
f 1//1 2//1 4//1 3//1
f 3//2 4//2 6//2 5//2
f 5//3 6//3 8//3 7//3
f 7//4 8//4 10//4 9//4
f 9//5 10//5 12//5 11//5
f 11//6 12//6 14//6 13//6
f 13//7 14//7 16//7 15//7
f 15//8 16//8 18//8 17//8
f 17//9 18//9 20//9 19//9
f 19//10 20//10 22//10 21//10
f 21//11 22//11 24//11 23//11
f 23//12 24//12 26//12 25//12
f 25//13 26//13 28//13 27//13
f 27//14 28//14 30//14 29//14
f 29//15 30//15 32//15 31//15
f 31//16 32//16 34//16 33//16
f 33//17 34//17 36//17 35//17
f 35//18 36//18 38//18 37//18
f 14//19 12//19 46//19 47//19
f 37//20 38//20 40//20 39//20
f 39//21 40//21 2//21 1//21
f 1//22 3//22 5//22 7//22 9//22 11//22 13//22 15//22 17//22 19//22 21//22 23//22 25//22 27//22 29//22 31//22 33//22 35//22 37//22 39//22
f 45//23 44//23 64//23 65//23
f 18//24 16//24 48//24 49//24
f 6//25 4//25 41//25 43//25
f 10//26 8//26 44//26 45//26
f 36//27 34//27 57//27 58//27
f 40//28 38//28 59//28 60//28
f 28//29 26//29 53//29 54//29
f 32//30 30//30 55//30 56//30
f 20//31 18//31 49//31 50//31
f 24//32 22//32 51//32 52//32
f 12//33 10//33 45//33 46//33
f 16//34 14//34 47//34 48//34
f 8//35 6//35 43//35 44//35
f 38//36 36//36 58//36 59//36
f 2//37 40//37 60//37 42//37
f 30//38 28//38 54//38 55//38
f 34//39 32//39 56//39 57//39
f 4//40 2//40 42//40 41//40
f 22//41 20//41 50//41 51//41
f 26//42 24//42 52//42 53//42
f 65//43 64//43 84//43 85//43
f 44//44 43//44 63//44 64//44
f 50//45 49//45 69//45 70//45
f 55//46 54//46 74//46 75//46
f 42//47 60//47 80//47 62//47
f 60//48 59//48 79//48 80//48
f 43//49 41//49 61//49 63//49
f 49//50 48//50 68//50 69//50
f 48//51 47//51 67//51 68//51
f 54//52 53//52 73//52 74//52
f 59//53 58//53 78//53 79//53
f 41//54 42//54 62//54 61//54
f 47//55 46//55 66//55 67//55
f 53//56 52//56 72//56 73//56
f 52//57 51//57 71//57 72//57
f 58//58 57//58 77//58 78//58
f 46//59 45//59 65//59 66//59
f 51//60 50//60 70//60 71//60
f 57//61 56//61 76//61 77//61
f 56//62 55//62 75//62 76//62
f 84//63 83//63 103//63 104//63
f 64//64 63//64 83//64 84//64
f 70//65 69//65 89//65 90//65
f 75//66 74//66 94//66 95//66
f 62//67 80//67 100//67 82//67
f 80//68 79//68 99//68 100//68
f 63//69 61//69 81//69 83//69
f 69//70 68//70 88//70 89//70
f 68//71 67//71 87//71 88//71
f 74//72 73//72 93//72 94//72
f 79//73 78//73 98//73 99//73
f 61//74 62//74 82//74 81//74
f 67//75 66//75 86//75 87//75
f 73//76 72//76 92//76 93//76
f 72//77 71//77 91//77 92//77
f 78//78 77//78 97//78 98//78
f 66//79 65//79 85//79 86//79
f 71//80 70//80 90//80 91//80
f 77//81 76//81 96//81 97//81
f 76//82 75//82 95//82 96//82
f 104//83 103//83 123//83 124//83
f 90//84 89//84 109//84 110//84
f 95//85 94//85 114//85 115//85
f 82//86 100//86 120//86 102//86
f 100//87 99//87 119//87 120//87
f 83//88 81//88 101//88 103//88
f 89//89 88//89 108//89 109//89
f 88//90 87//90 107//90 108//90
f 94//91 93//91 113//91 114//91
f 99//92 98//92 118//92 119//92
f 81//93 82//93 102//93 101//93
f 87//94 86//94 106//94 107//94
f 93//95 92//95 112//95 113//95
f 92//96 91//96 111//96 112//96
f 98//97 97//97 117//97 118//97
f 86//98 85//98 105//98 106//98
f 91//99 90//99 110//99 111//99
f 97//100 96//100 116//100 117//100
f 96//101 95//101 115//101 116//101
f 85//102 84//102 104//102 105//102
f 121//103 122//103 140//103 139//103 138//103 137//103 136//103 135//103 134//103 133//103 132//103 131//103 130//103 129//103 128//103 127//103 126//103 125//103 124//103 123//103
f 110//104 109//104 129//104 130//104
f 115//105 114//105 134//105 135//105
f 102//106 120//106 140//106 122//106
f 120//107 119//107 139//107 140//107
f 103//108 101//108 121//108 123//108
f 109//109 108//109 128//109 129//109
f 108//110 107//110 127//110 128//110
f 114//111 113//111 133//111 134//111
f 119//112 118//112 138//112 139//112
f 101//113 102//113 122//113 121//113
f 107//114 106//114 126//114 127//114
f 113//115 112//115 132//115 133//115
f 112//116 111//116 131//116 132//116
f 118//117 117//117 137//117 138//117
f 106//118 105//118 125//118 126//118
f 111//119 110//119 130//119 131//119
f 117//120 116//120 136//120 137//120
f 116//121 115//121 135//121 136//121
f 105//122 104//122 124//122 125//122
